<?xml version="1.0" encoding="iso-8859-1"?>
<!-- Generator: Adobe Illustrator 17.1.0, SVG Export Plug-In . SVG Version: 6.00 Build 0)  -->
<!DOCTYPE svg PUBLIC "-//W3C//DTD SVG 1.1//EN" "http://www.w3.org/Graphics/SVG/1.1/DTD/svg11.dtd">
<svg version="1.1" id="Capa_1" xmlns="http://www.w3.org/2000/svg" xmlns:xlink="http://www.w3.org/1999/xlink" x="0px" y="0px"
	 viewBox="0 0 175.188 175.188" style="enable-background:new 0 0 175.188 175.188;" xml:space="preserve">
<path d="M153.729,163.261H21.459C9.626,163.261,0,153.634,0,141.801V68.189c0-14.426,10.092-26.75,24.125-29.638v-5.966
	c0-1.381,1.119-2.5,2.5-2.5H36.95c1.381,0,2.5,1.119,2.5,2.5v5.761h3.755l10.967-18.418c2.938-4.936,8.332-8.001,14.076-8.001
	h38.693c5.743,0,11.137,3.066,14.076,8.001l10.967,18.418h17.771c0.145,0,0.29,0.013,0.433,0.038
	c14.487,2.546,25.002,15.081,25.002,29.805v73.612C175.188,153.634,165.562,163.261,153.729,163.261z M25.658,43.347
	C13.675,45.555,5,55.969,5,68.189v73.612c0,9.076,7.383,16.459,16.459,16.459h132.27c9.076,0,16.459-7.384,16.459-16.459V68.189
	c0-12.221-8.675-22.634-20.658-24.843h-18.968c-0.881,0-1.697-0.464-2.148-1.221L116.72,22.486c-2.042-3.429-5.79-5.559-9.78-5.559
	H68.248c-3.991,0-7.738,2.13-9.78,5.559L46.774,42.125c-0.451,0.757-1.267,1.221-2.148,1.221H25.658z M29.125,38.347h5.325v-3.261
	h-5.325V38.347z M87.594,147.733c-25.231,0-45.759-20.527-45.759-45.759s20.527-45.759,45.759-45.759
	c25.232,0,45.759,20.527,45.759,45.759S112.826,147.733,87.594,147.733z M87.594,61.214c-22.475,0-40.759,18.285-40.759,40.759
	s18.284,40.759,40.759,40.759s40.759-18.285,40.759-40.759S110.068,61.214,87.594,61.214z M87.594,134.438
	c-17.9,0-32.463-14.563-32.463-32.464c0-17.9,14.563-32.464,32.463-32.464s32.464,14.563,32.464,32.464
	C120.058,119.875,105.494,134.438,87.594,134.438z M87.594,74.51c-15.144,0-27.463,12.32-27.463,27.464s12.32,27.464,27.463,27.464
	s27.464-12.32,27.464-27.464S102.737,74.51,87.594,74.51z M68.088,105.098c-1.286,0-2.377-0.98-2.487-2.283
	c-0.028-0.328-0.61-8.121,5.278-15.213c5.82-7.011,15.309-7.932,15.709-7.968c1.374-0.131,2.589,0.893,2.712,2.268
	c0.123,1.375-0.893,2.59-2.268,2.712c-0.071,0.007-7.839,0.799-12.307,6.181c-4.536,5.465-4.146,11.552-4.141,11.613
	c0.101,1.372-0.925,2.574-2.296,2.682C68.222,105.096,68.155,105.098,68.088,105.098z M150.75,73.2h-8.075
	c-5.238,0-9.5-4.262-9.5-9.5v-0.954c0-5.238,4.262-9.5,9.5-9.5h8.075c5.238,0,9.5,4.262,9.5,9.5V63.7
	C160.25,68.938,155.988,73.2,150.75,73.2z M142.675,58.247c-2.481,0-4.5,2.019-4.5,4.5V63.7c0,2.481,2.019,4.5,4.5,4.5h8.075
	c2.481,0,4.5-2.019,4.5-4.5v-0.954c0-2.481-2.019-4.5-4.5-4.5H142.675z"/>
<g>
</g>
<g>
</g>
<g>
</g>
<g>
</g>
<g>
</g>
<g>
</g>
<g>
</g>
<g>
</g>
<g>
</g>
<g>
</g>
<g>
</g>
<g>
</g>
<g>
</g>
<g>
</g>
<g>
</g>
</svg>
