<?xml version="1.0" encoding="UTF-8"?>
<svg id="Layer_1" data-name="Layer 1" xmlns="http://www.w3.org/2000/svg" viewBox="0 0 43 43">
  <defs>
    <style>
      .cls-1 {
        fill: #fff;
      }

      .cls-2 {
        fill: #fdfdff;
      }
    </style>
  </defs>
  <g id="Layer_17" data-name="Layer 17">
    <path class="cls-1" d="M41.5,22.25H23.75c-.83,0-1.5,.67-1.5,1.5v17.75c0,.83,.67,1.5,1.5,1.5h14.37c2.69,0,4.87-2.19,4.88-4.88v-14.37c0-.83-.67-1.5-1.5-1.5Zm-1.5,15.87c0,1.04-.84,1.88-1.88,1.88h-12.87v-14.75h14.75v12.87Z"/>
    <path class="cls-1" d="M38.12,0h-14.37c-.83,0-1.5,.67-1.5,1.5V19.25c0,.83,.67,1.5,1.5,1.5h17.75c.83,0,1.5-.67,1.5-1.5V4.88c0-2.69-2.19-4.87-4.88-4.88Zm1.88,17.75h-14.75V3h12.87c1.04,0,1.88,.84,1.88,1.88h0v12.87Z"/>
    <path class="cls-2" d="M19.25,22.25H1.5c-.83,0-1.5,.67-1.5,1.5v14.37c0,2.69,2.19,4.87,4.88,4.88h14.37c.83,0,1.5-.67,1.5-1.5V23.75c0-.83-.67-1.5-1.5-1.5Zm-.84,17.75H4.96c-1.09,0-1.96-.84-1.96-1.88h0v-12.87h15.41v14.75Z"/>
    <path class="cls-1" d="M19.25,0H4.88C2.19,0,0,2.19,0,4.88v14.37c0,.83,.67,1.5,1.5,1.5H19.25c.83,0,1.5-.67,1.5-1.5V1.5c0-.83-.67-1.5-1.5-1.5Zm-1.5,17.75H3V4.88c0-1.04,.84-1.88,1.88-1.88h12.87v14.75Z"/>
  </g>
</svg>