<?xml version="1.0" encoding="UTF-8" standalone="no"?> <svg width="64" height="64" viewBox="0 0 64 64" fill="none" xmlns="http://www.w3.org/2000/svg">
<path d="M36.8701 3H27.1201C24.922 3 23.1401 4.78191 23.1401 6.98V57.02C23.1401 59.2181 24.922 61 27.1201 61H36.8701C39.0682 61 40.8501 59.2181 40.8501 57.02V6.98C40.8501 4.78191 39.0682 3 36.8701 3Z" fill="#40B1E5"/>
<path d="M56.8701 3H47.1201C44.922 3 43.1401 4.78191 43.1401 6.98V57.02C43.1401 59.2181 44.922 61 47.1201 61H56.8701C59.0682 61 60.8501 59.2181 60.8501 57.02V6.98C60.8501 4.78191 59.0682 3 56.8701 3Z" fill="#B72026"/>
<path d="M16.8701 3H7.12014C4.92204 3 3.14014 4.78191 3.14014 6.98V57.02C3.14014 59.2181 4.92204 61 7.12014 61H16.8701C19.0682 61 20.8501 59.2181 20.8501 57.02V6.98C20.8501 4.78191 19.0682 3 16.8701 3Z" fill="#FFB454"/>
<path d="M39.8501 12.8601H24.1401C23.5879 12.8601 23.1401 13.3078 23.1401 13.8601V32.0001C23.1401 32.5524 23.5879 33.0001 24.1401 33.0001H39.8501C40.4024 33.0001 40.8501 32.5524 40.8501 32.0001V13.8601C40.8501 13.3078 40.4024 12.8601 39.8501 12.8601Z" fill="#E6E6E6"/>
<path d="M59.8501 12.8601H44.1401C43.5879 12.8601 43.1401 13.3078 43.1401 13.8601V32.0001C43.1401 32.5524 43.5879 33.0001 44.1401 33.0001H59.8501C60.4024 33.0001 60.8501 32.5524 60.8501 32.0001V13.8601C60.8501 13.3078 60.4024 12.8601 59.8501 12.8601Z" fill="#E6E6E6"/>
<path d="M19.8501 12.8601H4.14014C3.58785 12.8601 3.14014 13.3078 3.14014 13.8601V32.0001C3.14014 32.5524 3.58785 33.0001 4.14014 33.0001H19.8501C20.4024 33.0001 20.8501 32.5524 20.8501 32.0001V13.8601C20.8501 13.3078 20.4024 12.8601 19.8501 12.8601Z" fill="#E6E6E6"/>
<path d="M32 53.0001C34.6013 53.0001 36.71 50.8913 36.71 48.2901C36.71 45.6888 34.6013 43.5801 32 43.5801C29.3988 43.5801 27.29 45.6888 27.29 48.2901C27.29 50.8913 29.3988 53.0001 32 53.0001Z" fill="#E6E6E6"/>
<path d="M52 43.5701C51.0661 43.5681 50.1525 43.8432 49.375 44.3607C48.5975 44.8781 47.991 45.6146 47.6322 46.4769C47.2734 47.3392 47.1785 48.2885 47.3595 49.2048C47.5405 50.121 47.9892 50.963 48.6489 51.6241C49.3086 52.2852 50.1497 52.7357 51.0655 52.9186C51.9814 53.1016 52.9309 53.0087 53.794 52.6517C54.657 52.2948 55.3948 51.6898 55.9139 50.9134C56.4329 50.137 56.71 49.224 56.71 48.2901C56.71 47.04 56.2141 45.841 55.3311 44.9561C54.4481 44.0712 53.2501 43.5727 52 43.5701V43.5701Z" fill="#E6E6E6"/>
<path d="M12 53.0001C14.6013 53.0001 16.71 50.8913 16.71 48.2901C16.71 45.6888 14.6013 43.5801 12 43.5801C9.39878 43.5801 7.29004 45.6888 7.29004 48.2901C7.29004 50.8913 9.39878 53.0001 12 53.0001Z" fill="#E6E6E6"/>
</svg>
