<svg xmlns="http://www.w3.org/2000/svg" xmlns:xlink="http://www.w3.org/1999/xlink" width="845.624" height="217.945" viewBox="0 0 845.624 217.945">
  <defs>
    <clipPath id="clip-path">
      <rect id="Rectangle_257" data-name="Rectangle 257" width="30" height="28" transform="translate(-0.11 -0.215)" fill="#fff"/>
    </clipPath>
    <clipPath id="clip-path-2">
      <rect id="Rectangle_258" data-name="Rectangle 258" width="30" height="27" transform="translate(-0.11 0.327)" fill="#fff"/>
    </clipPath>
    <clipPath id="clip-path-3">
      <rect id="Rectangle_260" data-name="Rectangle 260" width="30" height="28" transform="translate(0.186 -0.215)" fill="#fff"/>
    </clipPath>
    <clipPath id="clip-path-4">
      <rect id="Rectangle_259" data-name="Rectangle 259" width="30" height="27" transform="translate(0.186 0.327)" fill="#fff"/>
    </clipPath>
  </defs>
  <g id="digicafe-logo-reverse" transform="translate(-1021.375 -559.855)">
    <path id="Path_382" data-name="Path 382" d="M114.24-122.808c-9.044,0-20.468,3.57-27.37,15.232-.476,1.19-1.19,1.428-1.428.714-5-10.234-13.566-15.946-25.942-15.946a31.308,31.308,0,0,0-23.324,10.472c-.714.714-1.19.238-1.19-.476v-5.95a2.249,2.249,0,0,0-2.38-2.38H14.756a2.249,2.249,0,0,0-2.38,2.38V-2.38A2.249,2.249,0,0,0,14.756,0h17.85a2.249,2.249,0,0,0,2.38-2.38V-81.158c0-13.8,6.426-21.9,16.66-21.9,9.282,0,15.708,8.092,15.708,22.134V-2.38A2.249,2.249,0,0,0,69.734,0h17.85a2.249,2.249,0,0,0,2.38-2.38V-81.158c0-13.8,6.426-21.9,16.66-21.9,9.282,0,15.708,8.092,15.708,22.134V-2.38A2.249,2.249,0,0,0,124.712,0h17.85a2.249,2.249,0,0,0,2.38-2.38V-82.586C144.942-107.576,134.232-122.808,114.24-122.808ZM155.414,47.6h1.19c29.036,0,35.938-8.33,44.268-39.27l32.606-126.616a1.84,1.84,0,0,0-1.9-2.618l-19.754-.238A2.4,2.4,0,0,0,209.2-119L192.066-33.082c-.238.952-.714.952-.952,0L173.74-119a2.4,2.4,0,0,0-2.618-2.142H151.606c-1.666,0-2.618.952-2.142,2.618L179.928-.476c0,.476.238.714.238,1.19-3.808,22.848-9.52,27.608-23.8,27.608h-1.19c-.714,0-1.19.952-1.19,2.38V45.22C153.986,46.648,154.7,47.6,155.414,47.6Zm135.66-211.82v51.17c0,.714-.476,1.19-1.19.476a29.724,29.724,0,0,0-22.848-10.234c-20.706,0-33.082,14.042-33.082,37.6v49.5c0,22.61,11.9,37.6,33.082,37.6A30.557,30.557,0,0,0,289.884-8.33c.714-.714,1.19-.238,1.19.476V-2.38A2.249,2.249,0,0,0,293.454,0h18.088a2.249,2.249,0,0,0,2.38-2.38V-164.22a2.249,2.249,0,0,0-2.38-2.38H293.454A2.249,2.249,0,0,0,291.074-164.22Zm-.238,80.444v46.648c0,11.424-6.664,19.278-16.9,19.278S256.8-25.7,256.8-37.128V-83.776c0-11.424,6.9-19.516,17.136-19.516S290.836-95.2,290.836-83.776Zm51.17-55.216c8.568,0,14.28-6.188,14.28-15.232,0-8.806-5.712-14.994-14.28-14.994s-14.518,6.188-14.518,14.994C327.488-145.18,333.438-138.992,342.006-138.992ZM332.962,0H351.05a2.249,2.249,0,0,0,2.38-2.38V-118.762a2.249,2.249,0,0,0-2.38-2.38H332.962a2.249,2.249,0,0,0-2.38,2.38V-2.38A2.249,2.249,0,0,0,332.962,0Zm91.63-118.762v6.188c0,.714-.476,1.19-1.19.476-5.712-8.092-14.28-10.948-23.086-10.948-20.706,0-32.606,14.518-32.606,37.842v47.6c0,22.61,11.424,37.6,32.606,37.6,8.33,0,17.136-2.856,23.086-10.948.714-.714,1.19-.476,1.19.238v5c0,21.9-6.426,34.986-34.034,34.034a2.321,2.321,0,0,0-2.618,2.38V45.934a2.43,2.43,0,0,0,2.38,2.618c44.744,2.38,57.12-19.754,57.12-52.122V-118.762a2.249,2.249,0,0,0-2.38-2.38H426.972A2.249,2.249,0,0,0,424.592-118.762Zm-16.9,99.008c-10,0-17.136-7.854-17.136-19.278V-83.776c0-11.424,7.14-19.516,17.136-19.516,10.234,0,16.9,8.092,16.9,19.516v44.744C424.592-27.608,417.928-19.754,407.694-19.754Zm67.354-119.238c8.568,0,14.28-6.188,14.28-15.232,0-8.806-5.712-14.994-14.28-14.994s-14.518,6.188-14.518,14.994C460.53-145.18,466.48-138.992,475.048-138.992ZM466,0h18.088a2.249,2.249,0,0,0,2.38-2.38V-118.762a2.249,2.249,0,0,0-2.38-2.38H466a2.249,2.249,0,0,0-2.38,2.38V-2.38A2.249,2.249,0,0,0,466,0Z" transform="translate(1008.999 729.073)" fill="#fff"/>
    <path id="Path_383" data-name="Path 383" d="M552.636,1.9c24.752,0,40.222-14.756,40.222-35.224v-3.57a2.249,2.249,0,0,0-2.38-2.38l-18.088-.238a2.249,2.249,0,0,0-2.38,2.38v2.38a17.067,17.067,0,0,1-17.374,16.9c-10.234,0-17.136-8.092-17.136-19.516v-46.41c0-11.424,6.9-19.516,17.136-19.516a17.067,17.067,0,0,1,17.374,16.9v2.38a2.249,2.249,0,0,0,2.38,2.38l18.088-.714a2.249,2.249,0,0,0,2.38-2.38v-3.094c0-19.754-15.47-35.224-40.222-35.224-24.514,0-39.984,15.47-39.984,37.842v49.266C512.652-12.852,528.122,1.9,552.636,1.9Zm89.488-124.95c-21.658,0-37.6,13.8-39.27,34.272a2.249,2.249,0,0,0,2.38,2.38h19.278a2.135,2.135,0,0,0,2.38-2.38c.952-8.568,6.9-14.518,14.756-14.518,10,0,17.136,8.806,17.136,22.134v6.9a1.024,1.024,0,0,1-.952.952h-13.8c-24.752,0-45.22,10.472-45.22,39.984C598.808-3.57,619.514,1.9,633.08,1.9c10,0,18.564-2.856,24.514-10,.714-.714,1.19-.238,1.19.476V-2.38A2.249,2.249,0,0,0,661.164,0h18.088a2.249,2.249,0,0,0,2.38-2.38V-83.3C681.632-107.338,665.21-123.046,642.124-123.046ZM638.078-18.088c-8.806,0-15.708-5-15.708-17.136,0-13.566,8.806-19.992,20.944-19.992h14.518a1.024,1.024,0,0,1,.952.952V-38.08C658.784-24.752,648.312-18.088,638.078-18.088Zm84.966-109.48c0-14.28,4.522-20.944,14.994-20.944h2.38a2.135,2.135,0,0,0,2.38-2.38l.476-14.518a2.249,2.249,0,0,0-2.38-2.38H737.8c-26.18,0-37.366,10.948-37.366,39.508v6.188a1.024,1.024,0,0,1-.952.952h-8.806a2.249,2.249,0,0,0-2.38,2.38v11.9a2.249,2.249,0,0,0,2.38,2.38h8.806a1.024,1.024,0,0,1,.952.952V-2.38A2.249,2.249,0,0,0,702.814,0h17.85a2.249,2.249,0,0,0,2.38-2.38V-103.53a1.024,1.024,0,0,1,.952-.952h16.66a2.249,2.249,0,0,0,2.38-2.38v-11.9a2.249,2.249,0,0,0-2.38-2.38H724a1.024,1.024,0,0,1-.952-.952ZM830.62-53.55V-85.2c0-22.372-14.994-37.842-39.984-37.842-24.514,0-39.984,15.47-39.984,37.842v49.5c0,22.848,15.47,37.6,39.984,37.6,23.562,0,37.128-12.614,39.27-32.844a1.969,1.969,0,0,0-2.142-2.38l-17.612-.952a2.358,2.358,0,0,0-2.618,1.9c-1.666,8.33-7.854,14.518-16.9,14.518-10,0-17.136-8.092-17.136-19.516V-50.218a1.024,1.024,0,0,1,.952-.952H828.24A2.249,2.249,0,0,0,830.62-53.55Zm-39.984-49.742c10.472,0,17.374,8.092,17.374,19.516v12.614a1.024,1.024,0,0,1-.952.952H774.452a1.024,1.024,0,0,1-.952-.952V-83.776C773.5-95.2,780.64-103.292,790.636-103.292Z" transform="translate(1008.999 729.073)" fill="#ff9300"/>
    <g id="Mask_Group_1" data-name="Mask Group 1" transform="translate(1509.109 561.288)" clip-path="url(#clip-path)">
      <g id="Path_334" data-name="Path 334" transform="translate(2.415 0.548)" fill="none">
        <path d="M0,0H384V200.943H0Z" stroke="none"/>
        <path d="M 6 5.999984741210938 L 6 194.9431304931641 L 378.0035705566406 194.9431304931641 L 378.0035705566406 5.999984741210938 L 6 5.999984741210938 M 0 -1.52587890625e-05 L 384.0035705566406 -1.52587890625e-05 L 384.0035705566406 200.9431304931641 L 0 200.9431304931641 L 0 -1.52587890625e-05 Z" stroke="none" fill="#ff9300"/>
      </g>
    </g>
    <g id="Mask_Group_2" data-name="Mask Group 2" transform="translate(1509.109 729.746)" clip-path="url(#clip-path-2)">
      <g id="Path_335" data-name="Path 335" transform="translate(2.415 -174.005)" fill="none">
        <path d="M0,200.943H384V0H0Z" stroke="none"/>
        <path d="M 378.0035705566406 194.9431304931641 L 378.0035705566406 5.999978542327881 L 5.999995708465576 5.999978542327881 L 5.999995708465576 194.9431304931641 L 378.0035705566406 194.9431304931641 M 384.0035705566406 200.9431304931641 L -4.195363999315305e-06 200.9431304931641 L -4.195363999315305e-06 -2.13301809708355e-05 L 384.0035705566406 -2.13301809708355e-05 L 384.0035705566406 200.9431304931641 Z" stroke="none" fill="#ff9300"/>
      </g>
    </g>
    <g id="Group_510" data-name="Group 510" transform="translate(1836.813 561.288)">
      <g id="Mask_Group_4" data-name="Mask Group 4" transform="translate(0 0)" clip-path="url(#clip-path-3)">
        <g id="Path_337" data-name="Path 337" transform="translate(-356.104 0.548)" fill="none">
          <path d="M384,0H0V200.943H384Z" stroke="none"/>
          <path d="M 6 5.999984741210938 L 6 194.9431304931641 L 378.0035705566406 194.9431304931641 L 378.0035705566406 5.999984741210938 L 6 5.999984741210938 M 0 -1.52587890625e-05 L 384.0035705566406 -1.52587890625e-05 L 384.0035705566406 200.9431304931641 L 0 200.9431304931641 L 0 -1.52587890625e-05 Z" stroke="none" fill="#ff9300"/>
        </g>
      </g>
      <g id="Mask_Group_3" data-name="Mask Group 3" transform="translate(0 168.458)" clip-path="url(#clip-path-4)">
        <g id="Path_336" data-name="Path 336" transform="translate(-356.104 -174.005)" fill="none">
          <path d="M384,200.943H0V0H384Z" stroke="none"/>
          <path d="M 378.0035705566406 194.9431304931641 L 378.0035705566406 5.999978542327881 L 5.999995708465576 5.999978542327881 L 5.999995708465576 194.9431304931641 L 378.0035705566406 194.9431304931641 M 384.0035705566406 200.9431304931641 L -4.195363999315305e-06 200.9431304931641 L -4.195363999315305e-06 -2.13301809708355e-05 L 384.0035705566406 -2.13301809708355e-05 L 384.0035705566406 200.9431304931641 Z" stroke="none" fill="#ff9300"/>
        </g>
      </g>
    </g>
  </g>
</svg>
