<?xml version="1.0" encoding="UTF-8"?>
<svg id="Layer_1" data-name="Layer 1" xmlns="http://www.w3.org/2000/svg" viewBox="0 0 51.01 61.61">
  <defs>
    <style>
      .cls-1 {
        fill: #e56139;
      }

      .cls-2 {
        fill: #667f92;
      }

      .cls-3 {
        fill: #a4b2be;
      }

      .cls-4 {
        fill: #706bae;
      }
    </style>
  </defs>
  <g>
    <polygon class="cls-4" points="22.54 61.61 0 48.19 0 39.08 22.54 52.5 22.54 61.61"/>
    <polygon class="cls-1" points="45.06 48.19 22.54 61.61 22.54 52.5 45.06 39.08 45.06 48.19"/>
    <polygon class="cls-2" points="22.53 12.73 0 26.15 0 35.26 22.53 21.85 22.53 12.73"/>
    <polygon class="cls-3" points="45.06 26.15 22.53 12.73 22.53 21.85 45.06 35.26 45.06 26.15"/>
    <polygon class="cls-4" points="22.54 48.7 0 35.28 0 26.17 22.54 39.59 22.54 48.7"/>
    <polygon class="cls-1" points="45.06 35.28 22.54 48.7 22.54 39.59 45.06 26.17 45.06 35.28"/>
  </g>
  <g>
    <rect class="cls-1" x="30.69" y="17.24" width="3.76" height="3.76"/>
    <rect class="cls-2" x="37" y="13.15" width="5.89" height="5.89"/>
    <rect class="cls-4" x="45.11" y="10.35" width="5.89" height="5.89"/>
    <rect class="cls-1" x="38.61" width="8.56" height="8.56"/>
    <rect class="cls-4" x="28.96" y="3.66" width="7.23" height="7.23"/>
  </g>
</svg>