<svg version="1.1" id="Icons" xmlns="http://www.w3.org/2000/svg" xmlns:xlink="http://www.w3.org/1999/xlink" x="0px" y="0px" viewBox="0 0 32 32" style="enable-background:new 0 0 32 32;" xml:space="preserve">
<style type="text/css">
	.st0{fill:none;stroke:#000000;stroke-width:2;stroke-linecap:round;stroke-linejoin:round;stroke-miterlimit:10;}
	.st1{fill:none;stroke:#000000;stroke-width:2;stroke-linejoin:round;stroke-miterlimit:10;}
</style>
<path class="st0" d="M3,5v16c0,1.1,0.9,2,2,2h22c1.1,0,2-0.9,2-2V5c0-1.1-0.9-2-2-2H5C3.9,3,3,3.9,3,5z" id="id_101" style="stroke: rgb(255, 255, 255);"></path>
<line class="st0" x1="9" y1="29" x2="23" y2="29" id="id_102" style="stroke: rgb(255, 255, 255);"></line>
<path class="st0" d="M13,23c0,2.1-0.7,4.6-1.8,6" id="id_103" style="stroke: rgb(255, 255, 255);"></path>
<path class="st0" d="M20.8,29c-1.1-1.4-1.8-3.9-1.8-6" id="id_104" style="stroke: rgb(255, 255, 255);"></path>
<circle class="st0" cx="12" cy="13" r="5" id="id_105" style="stroke: rgb(255, 255, 255);"></circle>
<polyline class="st0" points="12,8 12,13 17,13 " id="id_106" style="stroke: rgb(255, 255, 255);"></polyline>
<line class="st0" x1="20" y1="9" x2="26" y2="9" id="id_107" style="stroke: rgb(255, 255, 255);"></line>
<line class="st0" x1="20" y1="13" x2="26" y2="13" id="id_108" style="stroke: rgb(255, 255, 255);"></line>
<line class="st0" x1="20" y1="17" x2="26" y2="17" id="id_109" style="stroke: rgb(255, 255, 255);"></line>
</svg>