<?xml version="1.0" encoding="UTF-8" standalone="no"?> <svg width="24" height="24" viewBox="0 0 24 24" fill="none" xmlns="http://www.w3.org/2000/svg">
<path d="M19.0745 20.4061C18.9178 20.2645 18.7451 20.1416 18.56 20.04L15.27 18.25C14.9008 18.0204 14.5925 17.705 14.3714 17.3307C14.1503 16.9564 14.0229 16.5342 14 16.1V15.73C14.0279 15.7041 14.058 15.6806 14.09 15.66C14.6894 15.1894 15.1731 14.5879 15.5042 13.9015C15.8352 13.2151 16.0048 12.462 16 11.7V8.63C15.9948 8.12288 15.8849 7.6223 15.6771 7.15966C15.4694 6.69701 15.1683 6.28228 14.7927 5.94146C14.4172 5.60065 13.9752 5.3411 13.4947 5.17909C13.0141 5.01708 12.5052 4.95611 12 5C11.4947 4.95611 10.9859 5.01708 10.5053 5.17909C10.0247 5.3411 9.58282 5.60065 9.20726 5.94146C8.8317 6.28228 8.53061 6.69701 8.32287 7.15966C8.11512 7.6223 8.0052 8.12288 7.99999 8.63V11.7C7.99514 12.462 8.16473 13.2151 8.49579 13.9015C8.82686 14.5879 9.3106 15.1894 9.90999 15.66C9.942 15.6806 9.97211 15.7041 9.99999 15.73V16.1C9.9771 16.5342 9.84968 16.9564 9.62856 17.3307C9.40745 17.705 9.09918 18.0204 8.72999 18.25L5.43999 20.04C5.25483 20.1416 5.08216 20.2645 4.92547 20.4061C3.19718 18.9545 1.95722 17.0065 1.37382 14.8262C0.790408 12.6459 0.89179 10.3389 1.66421 8.21824C2.43663 6.09754 3.84269 4.26577 5.69166 2.97143C7.54062 1.67708 9.74298 0.982819 12 0.982819C14.257 0.982819 16.4593 1.67708 18.3083 2.97143C20.1572 4.26577 21.5633 6.09754 22.3357 8.21824C23.1081 10.3389 23.2095 12.6459 22.6261 14.8262C22.0427 17.0065 20.8028 18.9545 19.0745 20.4061L19.0745 20.4061Z" fill="#CCF0EC"/>
<path d="M19.08 20.41C18.85 20.6 18.61 20.79 18.37 20.97C18.3 21.02 18.23 21.07 18.15 21.12C17.95 21.25 17.75 21.38 17.55 21.5C17.2786 21.6624 16.9981 21.8093 16.71 21.94C16.4471 22.0695 16.1766 22.1831 15.9 22.28C15.5253 22.4287 15.1411 22.5523 14.75 22.65C14.61 22.69 14.47 22.7199 14.33 22.75C14.1 22.8 13.88 22.84 13.65 22.87C13.478 22.9025 13.3045 22.9258 13.13 22.94C12.99 22.96 12.85 22.97 12.71 22.98C12.47 22.99 12.24 23 12 23C11.76 23 11.53 22.99 11.29 22.98C11.15 22.97 11.01 22.96 10.87 22.94C10.6956 22.9258 10.522 22.9025 10.35 22.87C10.12 22.84 9.90001 22.8 9.67001 22.75C9.53001 22.72 9.39001 22.69 9.25001 22.65C8.85889 22.5523 8.4747 22.4287 8.10001 22.28C7.82342 22.1831 7.55292 22.0695 7.29001 21.94C7.00192 21.8093 6.72147 21.6624 6.45001 21.5C6.25001 21.38 6.05001 21.25 5.85001 21.12C5.77001 21.07 5.70001 21.02 5.63001 20.97C5.39001 20.79 5.15001 20.6 4.92001 20.41C5.07829 20.2668 5.25281 20.1426 5.44001 20.04L8.73001 18.25C9.0992 18.0204 9.40747 17.705 9.62859 17.3307C9.8497 16.9563 9.97713 16.5341 10 16.1V15.73C9.97214 15.704 9.94202 15.6806 9.91001 15.66C9.31062 15.1894 8.82688 14.5879 8.49582 13.9015C8.16475 13.2151 7.99516 12.462 8.00001 11.7V8.62999C8.00522 8.12287 8.11514 7.62229 8.32289 7.15965C8.53064 6.697 8.83173 6.28227 9.20728 5.94145C9.58284 5.60064 10.0248 5.34109 10.5053 5.17908C10.9859 5.01707 11.4948 4.9561 12 4.99999C12.5053 4.9561 13.0141 5.01707 13.4947 5.17908C13.9753 5.34109 14.4172 5.60064 14.7927 5.94145C15.1683 6.28227 15.4694 6.697 15.6771 7.15965C15.8849 7.62229 15.9948 8.12287 16 8.62999V11.7C16.0049 12.462 15.8353 13.2151 15.5042 13.9015C15.1731 14.5879 14.6894 15.1894 14.09 15.66C14.058 15.6806 14.0279 15.704 14 15.73V16.1C14.0229 16.5341 14.1503 16.9563 14.3714 17.3307C14.5926 17.705 14.9008 18.0204 15.27 18.25L18.56 20.04C18.7472 20.1426 18.9217 20.2668 19.08 20.41V20.41Z" fill="#00C8AF"/>
</svg>
