<?xml version="1.0" encoding="UTF-8"?>
<svg id="Layer_1" data-name="Layer 1" xmlns="http://www.w3.org/2000/svg" viewBox="0 0 480 480">
  <defs>
    <style>
      .cls-1 {
        fill: #fff;
      }
    </style>
  </defs>
  <path id="id_101" data-name="id 101" class="cls-1" d="M60,40c-5.3,0-10.39,2.12-14.14,5.86-3.75,3.75-5.86,8.83-5.86,14.14V420c0,5.3,2.12,10.39,5.86,14.14,3.75,3.75,8.83,5.86,14.14,5.86H420c5.3,0,10.39-2.11,14.14-5.86,3.75-3.75,5.86-8.83,5.86-14.14V60c0-5.3-2.11-10.39-5.86-14.14-3.75-3.75-8.83-5.86-14.14-5.86H60Zm284,104h80v16h-64c-2.12,0-4.16,.84-5.66,2.34s-2.34,3.54-2.34,5.66v24c0,2.12,.84,4.16,2.34,5.66s3.54,2.34,5.66,2.34,4.16-.84,5.66-2.34,2.34-3.54,2.34-5.66v-16h56v160h-80c-2.12,0-4.16,.84-5.66,2.34s-2.34,3.54-2.34,5.66v80H144v-80c0-2.12-.84-4.16-2.34-5.66s-3.54-2.34-5.66-2.34H56v-88h40c2.12,0,4.16-.84,5.66-2.34s2.34-3.54,2.34-5.66-.84-4.16-2.34-5.66-3.53-2.34-5.66-2.34H56v-88h80c2.12,0,4.16-.84,5.66-2.34s2.34-3.54,2.34-5.66V56h192v80c0,2.12,.84,4.16,2.34,5.66s3.54,2.34,5.66,2.34ZM56,60c0-1.06,.42-2.08,1.17-2.83,.75-.75,1.77-1.17,2.83-1.17h68v72H56V60Zm4,364c-1.06,0-2.08-.42-2.83-1.17-.75-.75-1.17-1.77-1.17-2.83v-68h72v72H60Zm364-4c0,1.06-.42,2.08-1.17,2.83-.75,.75-1.77,1.17-2.83,1.17h-68v-72h72v68Zm-4-364c1.06,0,2.08,.42,2.83,1.17,.75,.75,1.17,1.77,1.17,2.83v68h-72V56h68Z"/>
  <path id="id_102" data-name="id 102" class="cls-1" d="M8,48c2.12,0,4.16-.84,5.66-2.34,1.5-1.5,2.34-3.54,2.34-5.66V16h24c2.12,0,4.16-.84,5.66-2.34,1.5-1.5,2.34-3.54,2.34-5.66s-.84-4.16-2.34-5.66c-1.5-1.5-3.54-2.34-5.66-2.34H8C5.88,0,3.84,.84,2.34,2.34,.84,3.84,0,5.88,0,8V40c0,2.12,.84,4.16,2.34,5.66,1.5,1.5,3.54,2.34,5.66,2.34Z"/>
  <path id="id_103" data-name="id 103" class="cls-1" d="M48,472c0-2.12-.84-4.16-2.34-5.66-1.5-1.5-3.54-2.34-5.66-2.34H16v-24c0-2.12-.84-4.16-2.34-5.66-1.5-1.5-3.54-2.34-5.66-2.34s-4.16,.84-5.66,2.34c-1.5,1.5-2.34,3.54-2.34,5.66v32c0,2.12,.84,4.16,2.34,5.66,1.5,1.5,3.54,2.34,5.66,2.34H40c2.12,0,4.16-.84,5.66-2.34,1.5-1.5,2.34-3.54,2.34-5.66Z"/>
  <path id="id_104" data-name="id 104" class="cls-1" d="M472,0h-32c-2.12,0-4.16,.84-5.66,2.34-1.5,1.5-2.34,3.54-2.34,5.66s.84,4.16,2.34,5.66c1.5,1.5,3.54,2.34,5.66,2.34h24v24c0,2.12,.84,4.16,2.34,5.66,1.5,1.5,3.54,2.34,5.66,2.34s4.16-.84,5.66-2.34c1.5-1.5,2.34-3.54,2.34-5.66V8c0-2.12-.84-4.16-2.34-5.66-1.5-1.5-3.54-2.34-5.66-2.34h0Z"/>
  <path id="id_105" data-name="id 105" class="cls-1" d="M472,432c-2.12,0-4.16,.84-5.66,2.34s-2.34,3.54-2.34,5.66v24h-24c-2.12,0-4.16,.84-5.66,2.34s-2.34,3.54-2.34,5.66,.84,4.16,2.34,5.66,3.54,2.34,5.66,2.34h32c2.12,0,4.16-.84,5.66-2.34s2.34-3.54,2.34-5.66v-32c0-2.12-.84-4.16-2.34-5.66s-3.54-2.34-5.66-2.34Z"/>
  <path id="id_106" data-name="id 106" class="cls-1" d="M272,133.16v-13.16h24c2.12,0,4.16-.84,5.66-2.34s2.34-3.54,2.34-5.66v-32c0-2.12-.84-4.16-2.34-5.66-1.5-1.5-3.54-2.34-5.66-2.34s-4.16,.84-5.66,2.34c-1.5,1.5-2.34,3.54-2.34,5.66v24h-24c-2.12,0-4.16,.84-5.66,2.34s-2.34,3.53-2.34,5.66v17.37c-13.28-2.11-26.83-1.79-40,.95v-42.32h32c2.12,0,4.16-.84,5.66-2.34s2.34-3.54,2.34-5.66-.84-4.16-2.34-5.66c-1.5-1.5-3.54-2.34-5.66-2.34h-40c-2.12,0-4.16,.84-5.66,2.34-1.5,1.5-2.34,3.54-2.34,5.66v54.96c-8.48,3.17-16.54,7.38-24,12.52V80c0-2.12-.84-4.16-2.34-5.66-1.5-1.5-3.54-2.34-5.66-2.34s-4.16,.84-5.66,2.34c-1.5,1.5-2.34,3.54-2.34,5.66v80H88c-2.12,0-4.16,.84-5.66,2.34-1.5,1.5-2.34,3.54-2.34,5.66v32c0,2.12,.84,4.16,2.34,5.66,1.5,1.5,3.53,2.34,5.66,2.34s4.16-.84,5.66-2.34,2.34-3.54,2.34-5.66v-24h51.48c-13.02,18.9-19.82,41.38-19.46,64.32,.36,22.94,7.85,45.2,21.45,63.68h-53.46v-32c0-2.12-.84-4.16-2.34-5.66s-3.53-2.34-5.66-2.34-4.16,.84-5.66,2.34c-1.5,1.5-2.34,3.54-2.34,5.66v40c0,2.12,.84,4.16,2.34,5.66,1.5,1.5,3.53,2.34,5.66,2.34h72v80c0,2.12,.84,4.16,2.34,5.66s3.54,2.34,5.66,2.34h40c2.12,0,4.16-.84,5.66-2.34s2.34-3.54,2.34-5.66-.84-4.16-2.34-5.66-3.54-2.34-5.66-2.34h-32v-62.27c23.36,16.07,52,22.55,80,18.1v12.17h-32c-2.12,0-4.16,.84-5.66,2.34s-2.34,3.54-2.34,5.66,.84,4.16,2.34,5.66,3.54,2.34,5.66,2.34h32v16h-8c-2.12,0-4.16,.84-5.66,2.34s-2.34,3.54-2.34,5.66,.84,4.16,2.34,5.66,3.54,2.34,5.66,2.34h16c2.12,0,4.16-.84,5.66-2.34s2.34-3.54,2.34-5.66v-55.95c8.41-2.67,16.47-6.34,24-10.93v66.89c0,2.12,.84,4.16,2.34,5.66s3.54,2.34,5.66,2.34,4.16-.84,5.66-2.34,2.34-3.54,2.34-5.66v-78.74c.47-.42,.94-.84,1.4-1.26h86.6c2.12,0,4.16-.84,5.66-2.34s2.34-3.54,2.34-5.66-.84-4.16-2.34-5.66-3.54-2.34-5.66-2.34h-72.26c5.46-7.41,9.96-15.47,13.42-24h50.84c2.12,0,4.16-.84,5.66-2.34s2.34-3.54,2.34-5.66v-48c0-2.12-.84-4.16-2.34-5.66s-3.54-2.34-5.66-2.34-4.16,.84-5.66,2.34-2.34,3.54-2.34,5.66v40h-37.74c6.4-27.15,2.3-55.72-11.47-79.98-13.77-24.26-36.19-42.43-62.79-50.86h0Zm-33.4,200.05c-18.71,0-37-5.55-52.56-15.94-15.56-10.39-27.68-25.17-34.84-42.45-7.16-17.29-9.03-36.31-5.38-54.66,3.65-18.35,12.66-35.21,25.89-48.44,13.23-13.23,30.09-22.24,48.44-25.89,18.35-3.65,37.37-1.78,54.66,5.38,17.29,7.16,32.06,19.29,42.45,34.84,10.4,15.56,15.94,33.85,15.94,52.56-.03,25.08-10.01,49.13-27.74,66.86-17.73,17.74-41.78,27.71-66.86,27.74h0Z"/>
  <path id="id_109" data-name="id 109" class="cls-1" d="M112,72h-40v40h40v-40Z"/>
  <path id="id_110" data-name="id 110" class="cls-1" d="M408,72h-40v40h40v-40Z"/>
  <path id="id_111" data-name="id 111" class="cls-1" d="M112,368h-40v40h40v-40Z"/>
  <path id="id_112" data-name="id 112" class="cls-1" d="M408,368h-40v40h40v-40Z"/>
</svg>