<?xml version="1.0" encoding="UTF-8"?>
<svg id="Layer_1" data-name="Layer 1" xmlns="http://www.w3.org/2000/svg" viewBox="0 0 58.08 58.08">
  <defs>
    <style>
      .cls-1 {
        fill: #fff;
      }
    </style>
  </defs>
  <g id="Layer_57" data-name="Layer 57">
    <path class="cls-1" d="M57.49,.59C57.11,.21,56.59,0,56.05,0L29.93,.36c-.52,0-1.02,.22-1.39,.59L.59,28.95c-.78,.78-.78,2.05,0,2.83,0,0,0,0,0,0l25.76,25.72c.78,.78,2.04,.78,2.82,0l28-28c.37-.37,.58-.87,.59-1.39l.32-26.08c0-.54-.21-1.06-.59-1.44Zm-3.76,26.69l-26,26L4.83,30.32,30.83,4.32l23.22-.29-.32,23.25Z"/>
    <path class="cls-1" d="M42.18,23.62c2.05,0,4.02-.81,5.47-2.26h0c7-7.47-3.44-17.91-10.93-10.93-4.89,4.72-1.26,13.3,5.46,13.19Zm-2.63-10.36c3.57-3.39,8.66,1.72,5.27,5.28-3.57,3.38-8.66-1.72-5.27-5.28Z"/>
  </g>
</svg>