<svg xmlns="http://www.w3.org/2000/svg" xmlns:xlink="http://www.w3.org/1999/xlink" width="1500" height="1500" viewBox="0 0 1500 1500">
  <defs>
    <clipPath id="clip-undraw_agreement_re_d4dv">
      <rect width="1500" height="1500"/>
    </clipPath>
  </defs>
  <g id="undraw_agreement_re_d4dv" clip-path="url(#clip-undraw_agreement_re_d4dv)">
    <rect width="1500" height="1500" fill="#fff"/>
    <g id="undraw_agreement_re_d4dv-2" data-name="undraw_agreement_re_d4dv">
      <path id="Path_1188" data-name="Path 1188" d="M1075.156,648.192,580.031,937.575a7.574,7.574,0,0,1-10.35-2.714l-318.4-544.767A7.574,7.574,0,0,1,254,379.743L749.123,90.361a7.575,7.575,0,0,1,10.35,2.714l318.4,544.768a7.574,7.574,0,0,1-2.714,10.35Z" transform="translate(-112.54 29.67)" fill="#fff"/>
      <path id="Path_1189" data-name="Path 1189" d="M1075.156,648.192,580.031,937.575a7.574,7.574,0,0,1-10.35-2.714l-318.4-544.767A7.574,7.574,0,0,1,254,379.743L749.123,90.361a7.575,7.575,0,0,1,10.35,2.714l318.4,544.768a7.574,7.574,0,0,1-2.714,10.35ZM255.526,382.356a4.544,4.544,0,0,0-1.629,6.21l318.4,544.768a4.544,4.544,0,0,0,6.21,1.629l495.124-289.383a4.545,4.545,0,0,0,1.628-6.21L756.86,94.6a4.544,4.544,0,0,0-6.21-1.629Z" transform="translate(-112.54 29.67)" fill="#e8cfbe"/>
      <path id="Path_1190" data-name="Path 1190" d="M523.366,346.383l-122.8,71.773a7.574,7.574,0,0,1-10.35-2.714l-71.773-122.8a7.574,7.574,0,0,1,2.714-10.35l122.8-71.773a7.574,7.574,0,0,1,10.35,2.714l71.773,122.8A7.574,7.574,0,0,1,523.366,346.383ZM322.684,284.9a4.545,4.545,0,0,0-1.629,6.21l71.773,122.8a4.544,4.544,0,0,0,6.21,1.629l122.8-71.773a4.544,4.544,0,0,0,1.628-6.21l-71.773-122.8a4.545,4.545,0,0,0-6.21-1.629Z" transform="translate(-62.112 119.895)" fill="#f8eee7"/>
      <path id="Path_1191" data-name="Path 1191" d="M507.747,366.133l-122.8,71.773a6.817,6.817,0,0,1-9.315-2.443l-71.773-122.8a6.817,6.817,0,0,1,2.443-9.315l122.8-71.773a6.817,6.817,0,0,1,9.315,2.443l71.773,122.8a6.817,6.817,0,0,1-2.443,9.315Z" transform="translate(-72.985 135.783)" fill="#e8cfbe"/>
      <path id="Path_1192" data-name="Path 1192" d="M758.308,260.574,374.227,485.056a6.809,6.809,0,0,1-6.872-11.758L751.436,248.817a6.809,6.809,0,0,1,6.872,11.758Z" transform="translate(-27.144 148.729)" fill="#f8eee7"/>
      <path id="Path_1193" data-name="Path 1193" d="M679.072,314.667,387.746,484.937a6.809,6.809,0,1,1-6.872-11.758L672.2,302.909a6.809,6.809,0,1,1,6.872,11.758Z" transform="translate(-16.992 189.346)" fill="#f8eee7"/>
      <path id="Path_1194" data-name="Path 1194" d="M615.964,175.951,446.133,275.211a6.809,6.809,0,0,1-6.872-11.758l169.832-99.261a6.809,6.809,0,1,1,6.872,11.758Z" transform="translate(26.85 85.186)" fill="#f8eee7"/>
      <path id="Path_1195" data-name="Path 1195" d="M587.1,213.229,459.651,287.718a6.809,6.809,0,0,1-6.872-11.758l127.447-74.488a6.809,6.809,0,0,1,6.872,11.758Z" transform="translate(37.001 113.178)" fill="#f8eee7"/>
      <path id="Path_1196" data-name="Path 1196" d="M785.345,306.835,401.264,531.316a6.809,6.809,0,0,1-6.872-11.758L778.473,295.077a6.809,6.809,0,1,1,6.872,11.757Z" transform="translate(-6.841 183.465)" fill="#f8eee7"/>
      <path id="Path_1197" data-name="Path 1197" d="M706.11,360.927,414.783,531.2a6.809,6.809,0,0,1-6.872-11.758L699.238,349.17a6.809,6.809,0,0,1,6.872,11.758Z" transform="translate(3.31 224.082)" fill="#f8eee7"/>
      <path id="Path_1198" data-name="Path 1198" d="M812.383,353.1,428.3,577.577a6.809,6.809,0,0,1-6.872-11.758L805.511,341.337a6.809,6.809,0,1,1,6.872,11.758Z" transform="translate(13.461 218.201)" fill="#f8eee7"/>
      <path id="Path_1199" data-name="Path 1199" d="M825.9,376.225,441.821,600.707a6.809,6.809,0,0,1-6.872-11.758L819.03,364.468a6.809,6.809,0,1,1,6.872,11.758Z" transform="translate(23.612 235.568)" fill="#f8eee7"/>
      <path id="Path_1200" data-name="Path 1200" d="M589.69,504.553a148.317,148.317,0,0,0,14.36-20.084c3.785-6.389,7.5-13.219,8.332-20.712a20.456,20.456,0,0,0-6.126-17.483,14.4,14.4,0,0,0-16.889-1.92,17.174,17.174,0,0,0-8.619,15.337,22.69,22.69,0,0,0,9.693,17.183c11.352,8.225,29.082,7.8,41.182,1.536,13.629-7.05,20.671-25.5,9.963-38.122-2.227-2.626-5.933.309-5.375,3.142a15.269,15.269,0,0,0,30.253-3.739L661.65,442.5a36.751,36.751,0,0,0,36.557-3.922,34.089,34.089,0,0,0,6.841-6.612c2.356-3.074,6.314-5.06,9.519-7.274l23.095-15.958c3.4-2.347.167-7.941-3.258-5.574l-20.916,14.452c-3.486,2.408-6.994,4.787-10.458,7.226-2.476,1.743-4,4.558-6.253,6.629a30.27,30.27,0,0,1-31.957,5.406,3.267,3.267,0,0,0-4.813,2.813,8.839,8.839,0,1,1-17.554,2.079l-5.375,3.142c6.907,8.145,2.308,20.638-5.65,26.1-8.9,6.112-22.049,7.173-32.081,3.374A18.928,18.928,0,0,1,588.2,464.165a11.281,11.281,0,0,1,2.56-12.909,8.093,8.093,0,0,1,11.253-.12,14.478,14.478,0,0,1,3.836,13.06c-1.035,6.469-4.611,12.434-7.937,17.959a137.963,137.963,0,0,1-12.846,17.889c-2.664,3.152,1.932,7.695,4.623,4.509Z" transform="translate(135.619 264.896)" fill="#e8cfbe"/>
      <path id="Path_1201" data-name="Path 1201" d="M629.713,555.008a15.193,15.193,0,0,1,1.527,1.84l71.521-1.75,8.344-15.247,24.656,9.585-12.148,28.427a11.54,11.54,0,0,1-12,6.922l-80.806-9.761a15.143,15.143,0,1,1-1.1-20.016Z" transform="translate(152.921 367.961)" fill="#c95636"/>
      <path id="Path_1202" data-name="Path 1202" d="M539.636,746.157H516.12l-11.188-90.708,34.708,0Z" transform="translate(476.146 611.166)" fill="#c95636"/>
      <path id="Path_1203" data-name="Path 1203" d="M787.7,822.674l-75.827,0v-.959A29.515,29.515,0,0,1,741.382,792.2h0l46.313,0Z" transform="translate(234.082 557.445)"/>
      <path id="Path_1204" data-name="Path 1204" d="M412.066,748.579l-21.625-9.239,25.344-87.81L447.7,665.165Z" transform="translate(390.176 608.223)" fill="#c95636"/>
      <path id="Path_1205" data-name="Path 1205" d="M657.733,830.446,588,800.657l.377-.882a29.516,29.516,0,0,1,38.735-15.547h0L669.7,802.423Z" transform="translate(141.071 549.673)"/>
      <path id="Path_1206" data-name="Path 1206" d="M460.2,471.861l-1.7,27.557,49.709,5.319,52.012,5.566-15.31-41.844Z" transform="translate(441.277 470.758)" fill="#ffb7b7"/>
      <path id="Path_1207" data-name="Path 1207" d="M692.884,643.892,673.573,509.27,707.044,498.3l9.831-13.482,47.839,2.831,7.023,15.733,25.509,12.053-3.92,72.8,2.86,60.9Z" transform="translate(205.325 326.639)" fill="#ff8e28"/>
      <path id="Path_1208" data-name="Path 1208" d="M692.261,597.206l-34.045-13.621.145-.606c.146-.611,14.636-61.163,16.56-70.893,2-10.138,9.327-12.94,9.638-13.054l.227-.084,13.474,4.1,5.917,46.494Z" transform="translate(193.794 337.248)" fill="#ff8e28"/>
      <path id="Path_1209" data-name="Path 1209" d="M659.232,950.806l-45.319-9.3,72.434-199.87,24.79-68.173s15.723-54.661,22.827-75.814l4.287-28.382L839.734,580.5s28.344,41.626,19.734,109.475L863.362,945l-45.319,2.324-37.96-257.2L713.46,831.117s-21,60.167-36.023,73.208Z" transform="translate(160.526 390.053)" fill="#3c7745"/>
      <path id="Path_1210" data-name="Path 1210" d="M725.941,616.068a15.211,15.211,0,0,1,2.388.132l47.344-53.636-5.507-16.485,23.792-11.563,12.586,28.235a11.541,11.541,0,0,1-3.08,13.5l-62.1,52.618a15.143,15.143,0,1,1-15.424-12.8Z" transform="translate(233.622 363.955)" fill="#c95636"/>
      <path id="Path_1211" data-name="Path 1211" d="M754.359,591.978l-19.75-46.456,7.7-32.359,8.3-10.486a4.78,4.78,0,0,1,3.841.036c3.061,1.232,5.667,5.008,7.747,11.222l18.509,52.721Z" transform="translate(251.156 339.76)" fill="#ff8e28"/>
      <path id="Path_1212" data-name="Path 1212" d="M687.367,510.134V475.111a46.931,46.931,0,1,1,93.862,0v35.023a6.311,6.311,0,0,1-6.3,6.3H693.672a6.311,6.311,0,0,1-6.3-6.3Z" transform="translate(215.683 284.109)"/>
      <circle id="Ellipse_256" data-name="Ellipse 256" cx="34.408" cy="34.408" r="34.408" transform="translate(905.93 730.916)" fill="#c95636"/>
      <path id="Path_1213" data-name="Path 1213" d="M681.026,472.506a37.167,37.167,0,0,1,37.125-37.125h7.005a37.167,37.167,0,0,1,37.124,37.125v.7h-14.8l-5.049-14.138-1.01,14.138h-7.65l-2.547-7.133-.51,7.133H681.026Z" transform="translate(210.922 289.516)"/>
      <path id="Path_1214" data-name="Path 1214" d="M707.251,508.3a6.211,6.211,0,0,1-.494-6.594c7.423-14.119,17.816-40.207,4.021-56.3l-.991-1.156h40.049v60.128l-36.381,6.419a6.452,6.452,0,0,1-1.116.1,6.278,6.278,0,0,1-5.088-2.6Z" transform="translate(229.701 296.182)"/>
      <path id="Path_1215" data-name="Path 1215" d="M212.9,731.1l21.252,7.6,39.411-78.361L242.2,649.121Z" transform="translate(256.866 606.414)" fill="#c95636"/>
      <path id="Path_1216" data-name="Path 1216" d="M432.6,807.74l9.843-27.541L484.3,795.157a28.359,28.359,0,0,1,17.141,36.206l-.31.867Z" transform="translate(24.384 548.435)"/>
      <path id="Path_1217" data-name="Path 1217" d="M291.837,745.28l22.569,0,10.738-87.052-33.311,0Z" transform="translate(316.134 613.251)" fill="#c95636"/>
      <path id="Path_1218" data-name="Path 1218" d="M515.548,793.067l44.447,0h0a28.325,28.325,0,0,1,28.326,28.325v.92l-72.773,0Z" transform="translate(86.666 558.096)"/>
      <path id="Path_1219" data-name="Path 1219" d="M489.459,487.946l9.815-19.395s36.566,9.161,39.89,30.353Z" transform="translate(67.076 314.424)" fill="#b4631c"/>
      <path id="Path_1220" data-name="Path 1220" d="M258.277,518.539l26.692,148.955L214.093,792.836,256.435,809.4l71.8-121.5,9.2-33.137,5.522,173.047,38.187-1.159,17.507-161.584L370.571,514.857Z" transform="translate(257.759 505.598)" fill="#3c7745"/>
      <path id="Path_1221" data-name="Path 1221" d="M523.388,741.573c-39.214,0-64.111-7.5-64.669-7.619l-.9-.192,20.425-94.7.92-87.35c0-37.016,24.362-64.306,27.743-66.825a15.925,15.925,0,0,1,8.47-10.409c8.126-3.687,18.057.737,18.475.928l29.806,11.175.14.414c.359,1.059,39.618,129.94,39.618,129.94s-2.376,112.608-3.2,116.3C600.209,733.232,545.177,741.573,523.388,741.573Z" transform="translate(43.317 317.775)" fill="#ff8e28"/>
      <circle id="Ellipse_257" data-name="Ellipse 257" cx="40.285" cy="40.285" r="40.285" transform="translate(556.553 696.299)" fill="#c95636"/>
      <path id="Path_1222" data-name="Path 1222" d="M259.823,432.715,330.3,531.048l10.407-45.921Z" transform="translate(292.098 443.918)" opacity="0.2"/>
      <path id="Path_1223" data-name="Path 1223" d="M650.171,573.588a17.287,17.287,0,0,1-25.957-5.381l-60.662,9.71,13.142-29.094,55.591-4.76a17.381,17.381,0,0,1,17.886,29.525Z" transform="translate(122.712 369.953)" fill="#c95636"/>
      <path id="Path_1224" data-name="Path 1224" d="M345.842,456.755l21.8-2.138,6.041,30.406-27.428.485Z" transform="translate(356.688 460.363)" fill="#b4631c"/>
      <path id="Path_1225" data-name="Path 1225" d="M652.309,623.887l-106.751-9.505-53.9-85.724-.166-.758a29.512,29.512,0,0,1,55.094-19.761l31.642,61.721,63.859,9.653Z" transform="translate(68.088 332.094)" fill="#ff8e28"/>
      <path id="Path_1226" data-name="Path 1226" d="M496.939,501.348l33.437,1.2c2.038.073,7.57-21.923,8.294-26.486a12.453,12.453,0,0,1,12.991-10.075c2.5.236,8.814-4.44,15.327-9.977,12.365-10.512,11.721-30.255-1.861-39.138q-.557-.364-1.093-.665c-8.569-4.8-18.592-6.406-28.411-6.529-8.9-.111-18.054,1.009-25.9,5.222-14.058,7.553-21.54,24.059-22.2,40s4.455,31.537,10.255,46.4" transform="translate(65.584 270.211)"/>
      <path id="Path_1227" data-name="Path 1227" d="M1220.449,812.173H228.334a1.816,1.816,0,0,1,0-3.5h992.645a1.586,1.586,0,0,1,1.334,1.751A2.028,2.028,0,0,1,1220.449,812.173Z" transform="translate(180.847 569.814)" fill="#918b87"/>
      <g id="Group_49" data-name="Group 49" transform="translate(12829.774 15626.716)">
        <path id="Path_1424" data-name="Path 1424" d="M948.684,472.5V451.28a31.782,31.782,0,0,0-29.942-31.713V336.692H911.7v82.781h-31.7v52.839H730.284v607.645h331.122V591.628A119.314,119.314,0,0,0,948.689,472.5Z" transform="translate(-12497.476 -15328.692)" fill="#f8eee7"/>
        <rect id="Rectangle_248" data-name="Rectangle 248" width="44.032" height="35.226" transform="translate(-11712.592 -14770.077)" fill="#fff"/>
        <rect id="Rectangle_249" data-name="Rectangle 249" width="44.032" height="35.226" transform="translate(-11640.379 -14770.077)" fill="#fff"/>
        <rect id="Rectangle_250" data-name="Rectangle 250" width="44.032" height="35.226" transform="translate(-11568.166 -14770.077)" fill="#fff"/>
        <rect id="Rectangle_251" data-name="Rectangle 251" width="44.032" height="35.226" transform="translate(-11712.592 -14680.252)" fill="#fff"/>
        <rect id="Rectangle_252" data-name="Rectangle 252" width="44.032" height="35.226" transform="translate(-11640.379 -14680.252)" fill="#fff"/>
        <rect id="Rectangle_253" data-name="Rectangle 253" width="44.032" height="35.226" transform="translate(-11568.166 -14680.252)" fill="#fff"/>
        <rect id="Rectangle_254" data-name="Rectangle 254" width="44.032" height="35.226" transform="translate(-11712.592 -14590.426)" fill="#fff"/>
        <rect id="Rectangle_255" data-name="Rectangle 255" width="44.032" height="35.226" transform="translate(-11640.379 -14590.426)" fill="#fff"/>
        <rect id="Rectangle_256" data-name="Rectangle 256" width="44.032" height="35.226" transform="translate(-11568.166 -14590.426)" fill="#fff"/>
        <rect id="Rectangle_257" data-name="Rectangle 257" width="44.032" height="35.226" transform="translate(-11712.592 -14500.6)" fill="#fff"/>
        <rect id="Rectangle_258" data-name="Rectangle 258" width="44.032" height="35.226" transform="translate(-11640.379 -14500.6)" fill="#fff"/>
        <rect id="Rectangle_259" data-name="Rectangle 259" width="44.032" height="35.226" transform="translate(-11568.166 -14500.6)" fill="#fff"/>
        <rect id="Rectangle_260" data-name="Rectangle 260" width="44.032" height="35.226" transform="translate(-11712.592 -14410.774)" fill="#fff"/>
        <rect id="Rectangle_261" data-name="Rectangle 261" width="44.032" height="35.226" transform="translate(-11640.379 -14410.774)" fill="#fff"/>
        <rect id="Rectangle_262" data-name="Rectangle 262" width="44.032" height="35.226" transform="translate(-11568.166 -14410.774)" fill="#fff"/>
        <rect id="Rectangle_263" data-name="Rectangle 263" width="44.032" height="35.226" transform="translate(-11712.592 -14320.948)" fill="#fff"/>
        <rect id="Rectangle_264" data-name="Rectangle 264" width="44.032" height="35.226" transform="translate(-11640.379 -14320.948)" fill="#fff"/>
        <rect id="Rectangle_265" data-name="Rectangle 265" width="44.032" height="35.226" transform="translate(-11568.166 -14320.948)" fill="#fff"/>
        <path id="Path_1435" data-name="Path 1435" d="M772,737c3.5-28.143,20.942-55.872,47.782-65.031a130.665,130.665,0,0,0,.006,89.711c4.124,11.156,9.873,23.135,5.994,34.379-2.414,7-8.319,12.349-14.919,15.7s-13.927,4.942-21.16,6.505l-1.424,1.177C776.794,793.505,768.5,765.143,772,737Z" transform="translate(-12466.334 -15073.449)" fill="#ff8e28"/>
        <path id="Path_1436" data-name="Path 1436" d="M812.938,672.759a111.682,111.682,0,0,0-27.764,62.855,48.087,48.087,0,0,0,.547,15.059,27.585,27.585,0,0,0,6.861,12.794c3.092,3.4,6.649,6.515,8.861,10.6a16.89,16.89,0,0,1,.825,13.788c-1.953,5.6-5.8,10.169-9.724,14.5-4.353,4.813-8.95,9.744-10.8,16.125-.224.773-1.411.38-1.187-.392,3.219-11.1,14-17.408,19.136-27.407,2.4-4.666,3.4-10.083,1.156-15.008-1.966-4.307-5.631-7.525-8.791-10.937a29.435,29.435,0,0,1-7.174-12.26,44.464,44.464,0,0,1-1.124-14.982,108.354,108.354,0,0,1,7.913-32.928,113.669,113.669,0,0,1,20.438-32.753C812.645,671.223,813.468,672.165,812.938,672.759Z" transform="translate(-12459.225 -15073.708)" fill="#fff"/>
        <path id="Path_1437" data-name="Path 1437" d="M788.89,711.5a16.756,16.756,0,0,1-12.755-17.553.626.626,0,0,1,1.249.062,15.516,15.516,0,0,0,11.9,16.3c.782.186.386,1.372-.392,1.187Z" transform="translate(-12462.605 -15057.154)" fill="#fff"/>
        <path id="Path_1438" data-name="Path 1438" d="M786.488,731.132a32.3,32.3,0,0,0,14.422-18.6c.227-.772,1.414-.379,1.187.392a33.592,33.592,0,0,1-15.047,19.324C786.357,732.66,785.8,731.541,786.488,731.132Z" transform="translate(-12454.927 -15042.888)" fill="#fff"/>
        <path id="Path_1439" data-name="Path 1439" d="M790.646,684.429a9.485,9.485,0,0,0,8.988-.456c.688-.42,1.245.7.562,1.116a10.628,10.628,0,0,1-9.943.527.646.646,0,0,1-.4-.79.628.628,0,0,1,.789-.4Z" transform="translate(-12452.144 -15064.381)" fill="#fff"/>
        <path id="Path_1440" data-name="Path 1440" d="M894.473,701.8c-.422.274-.844.549-1.266.833A124.883,124.883,0,0,0,877.236,715.1c-.391.348-.781.707-1.161,1.065a131.684,131.684,0,0,0-28.6,39.148,127.907,127.907,0,0,0-7,18.123c-2.585,8.577-4.7,18.081-9.821,25.1a21.955,21.955,0,0,1-1.709,2.11H782.7c-.1-.053-.211-.095-.316-.148l-1.846.084c.074-.327.158-.665.232-.992.042-.19.095-.38.137-.57.031-.127.063-.253.084-.369.01-.042.021-.084.031-.116.021-.116.053-.222.074-.327q.7-2.832,1.434-5.665c0-.01,0-.01.01-.021a188.016,188.016,0,0,1,15.824-41.543c.211-.39.422-.791.654-1.182a122.044,122.044,0,0,1,10.961-16.625,107.829,107.829,0,0,1,7.184-8.218,89.7,89.7,0,0,1,22.448-16.816c16.583-8.756,35.783-12.11,53.506-6.762C893.576,701.517,894.02,701.655,894.473,701.8Z" transform="translate(-12459.214 -15053.016)" fill="#ff8e28"/>
        <path id="Path_1441" data-name="Path 1441" d="M894.276,701.387a111.684,111.684,0,0,0-60.012,33.47,48.1,48.1,0,0,0-8.63,12.353,27.583,27.583,0,0,0-2.225,14.346c.423,4.574,1.386,9.2.691,13.8a16.89,16.89,0,0,1-7.643,11.506c-4.933,3.3-10.756,4.626-16.5,5.727-6.373,1.223-13.013,2.391-18.332,6.372-.644.482-1.355-.546-.712-1.027,9.254-6.926,21.656-5.473,31.78-10.362,4.724-2.282,8.789-6,9.959-11.287,1.023-4.623.035-9.4-.434-14.026a29.434,29.434,0,0,1,1.653-14.109A44.462,44.462,0,0,1,832,735.513a108.352,108.352,0,0,1,26.143-21.526A113.661,113.661,0,0,1,894.18,700.14C894.967,699.984,895.058,701.232,894.276,701.387Z" transform="translate(-12459.121 -15052.014)" fill="#fff"/>
        <path id="Path_1442" data-name="Path 1442" d="M815.475,726a16.756,16.756,0,0,1,.384-21.694c.533-.6,1.494.2.959.8a15.516,15.516,0,0,0-.316,20.181C817.016,725.908,815.985,726.617,815.475,726Z" transform="translate(-12435.51 -15048.994)" fill="#fff"/>
        <path id="Path_1443" data-name="Path 1443" d="M804.95,736.423a32.3,32.3,0,0,0,22.714-6.168c.646-.48,1.357.548.712,1.027a33.592,33.592,0,0,1-23.649,6.37C803.926,737.564,804.154,736.335,804.95,736.423Z" transform="translate(-12441.182 -15029.172)" fill="#fff"/>
        <path id="Path_1444" data-name="Path 1444" d="M831.585,705.277a9.484,9.484,0,0,0,7.451,5.047c.8.079.573,1.308-.223,1.23a10.629,10.629,0,0,1-8.256-5.565.646.646,0,0,1,.158-.87A.628.628,0,0,1,831.585,705.277Z" transform="translate(-12421.217 -15048.297)" fill="#fff"/>
        <path id="Path_1455" data-name="Path 1455" d="M712.844,614.477a.684.684,0,0,0,.317-.551c-.092.081-.182.166-.275.245C712.873,614.273,712.868,614.371,712.844,614.477Z" transform="translate(-12510.752 -15117.638)" fill="#2f2e41"/>
      </g>
      <rect id="Rectangle_266" data-name="Rectangle 266" width="1500" height="1500" fill="#fff" opacity="0"/>
      <circle id="Ellipse_283" data-name="Ellipse 283" cx="4" cy="4" r="4" transform="translate(925 765)"/>
      <circle id="Ellipse_285" data-name="Ellipse 285" cx="4" cy="4" r="4" transform="translate(626 737)"/>
      <circle id="Ellipse_284" data-name="Ellipse 284" cx="4" cy="4" r="4" transform="translate(909 765)"/>
    </g>
  </g>
</svg>
