<svg xmlns="http://www.w3.org/2000/svg" xmlns:xlink="http://www.w3.org/1999/xlink" width="1500" height="1500" viewBox="0 0 1500 1500">
  <defs>
    <clipPath id="clip-undraw_revenue_re_2bmg">
      <rect width="1500" height="1500"/>
    </clipPath>
  </defs>
  <g id="undraw_revenue_re_2bmg" clip-path="url(#clip-undraw_revenue_re_2bmg)">
    <rect width="1500" height="1500" fill="#fff"/>
    <circle id="Ellipse_83" data-name="Ellipse 83" cx="8.278" cy="8.278" r="8.278" transform="translate(240.933 96.086)" fill="#f2f2f2"/>
    <g id="undraw_revenue_re_2bmg-2" data-name="undraw_revenue_re_2bmg">
      <path id="Path_437" data-name="Path 437" d="M1448.417,641.222q0,6.026-.142,12.031c-.041,2.617-.122,5.234-.223,7.852-.02.751-.041,1.481-.081,2.232q-.091,2.161-.183,4.261-.669,14.03-2.069,27.857c-.041.446-.081.893-.122,1.319-.1.913-.183,1.826-.3,2.739-.284,2.739-.588,5.478-.933,8.176-.223,1.826-.446,3.632-.69,5.458-.122.872-.244,1.745-.345,2.6-.142.954-.264,1.887-.406,2.82-.061.406-.122.812-.183,1.238-.2,1.38-.406,2.78-.629,4.159-.264,1.806-.548,3.591-.852,5.4q-.426,2.678-.913,5.356c-.3,1.785-.629,3.571-.953,5.356-.325,1.806-.67,3.591-1.014,5.377q-2.617,13.269-5.843,26.315-1.278,5.082-2.617,10.144-2.221,8.217-4.687,16.353c-.467,1.5-.933,3-1.4,4.484-.528,1.7-1.075,3.408-1.623,5.092-.548,1.7-1.1,3.388-1.664,5.072s-1.136,3.368-1.724,5.052c-.568,1.664-1.156,3.348-1.765,5.011-.588,1.684-1.2,3.348-1.806,5.011-.629,1.664-1.238,3.327-1.867,4.971q-1.887,4.991-3.875,9.881c-.649,1.643-1.319,3.287-2.009,4.91q-4.048,9.8-8.481,19.376c-.649,1.42-1.3,2.84-1.968,4.24-.446.933-.872,1.846-1.319,2.78-.751,1.542-1.481,3.064-2.232,4.585-.751,1.542-1.522,3.1-2.313,4.666q-2.343,4.626-4.768,9.231c-1.6,3.064-3.246,6.127-4.93,9.15s-3.388,6.046-5.113,9.029c-.872,1.5-1.745,3-2.617,4.484q-5.265,8.917-10.875,17.631-5.569,8.673-11.5,17.144c-1.968,2.82-3.977,5.64-6.006,8.42-.812,1.116-1.623,2.212-2.435,3.307-.994,1.38-2.029,2.739-3.064,4.1a539.294,539.294,0,0,1-777,89.636q-8.887-7.426-17.448-15.217a542.47,542.47,0,0,1-94.769-113.577c-3.266-5.255-6.472-10.57-9.556-15.927a537.179,537.179,0,0,1-72.046-269.577c0-298.062,241.619-539.682,539.682-539.682A539.23,539.23,0,0,1,1360.526,345.9c.893,1.359,1.785,2.739,2.678,4.119a536.482,536.482,0,0,1,83.854,252.839Q1448.427,621.847,1448.417,641.222Z" transform="translate(-87.816 -58.541)" fill="#f8eee7"/>
      <path id="Path_438" data-name="Path 438" d="M1239.163,226.1H491.623a2.06,2.06,0,0,1,0-4.119h744.862C1237.377,223.34,1238.27,224.72,1239.163,226.1Z" transform="translate(36.227 65.378)" fill="#e8cfbe"/>
      <ellipse id="Ellipse_164" data-name="Ellipse 164" cx="22.166" cy="22.66" rx="22.166" ry="22.66" transform="translate(551.035 217.324)" fill="#ff8e28"/>
      <ellipse id="Ellipse_165" data-name="Ellipse 165" cx="22.166" cy="22.66" rx="22.166" ry="22.66" transform="translate(627.609 217.324)" fill="#ff8e28"/>
      <ellipse id="Ellipse_166" data-name="Ellipse 166" cx="22.166" cy="22.66" rx="22.166" ry="22.66" transform="translate(704.184 217.324)" fill="#ff8e28"/>
      <path id="Path_439" data-name="Path 439" d="M1292.839,348.631c-19.5,8.866-36.966,23.19-52.223,42.89-17.631,22.784-36.52,38.833-55.814,49.708-.913.507-1.806.994-2.719,1.481a149.178,149.178,0,0,1-55.814,17.1,169.419,169.419,0,0,1-17.773.852c-2.475-.02-4.95-.081-7.406-.2-5.823-.284-11.585-.852-17.245-1.664-32.5-4.626-61.9-17.124-83.671-28.871a304.512,304.512,0,0,0-95.783-33.517q-9.008-1.491-17.976-2.333c-2.475-.243-4.93-.426-7.385-.588q-9.039-.609-18.057-.568c-3.084.02-6.147.081-9.231.2-51.818,2.029-119.4,16.8-180,68.393-.812.69-1.6,1.38-2.414,2.069-.751.649-1.5,1.319-2.252,1.988A302.621,302.621,0,0,0,640.007,492.9a343.078,343.078,0,0,0-26.781,35,223.3,223.3,0,0,1-33.761,39.157,188.031,188.031,0,0,0-60.5,136.178v1.015c-.02,1.1-.02,2.212-.02,3.307h669.794c.812-1.1,1.623-2.191,2.414-3.307,2.029-2.78,4.037-5.6,6.005-8.42q5.935-8.46,11.5-17.144,5.63-8.7,10.875-17.631c.872-1.481,1.745-2.982,2.617-4.484,1.724-2.982,3.429-6.005,5.113-9.029s3.327-6.087,4.93-9.15q2.435-4.6,4.768-9.231c.791-1.562,1.562-3.125,2.313-4.667.751-1.522,1.481-3.043,2.232-4.585.446-.933.872-1.846,1.319-2.78.669-1.4,1.319-2.82,1.968-4.24q4.443-9.586,8.481-19.376c.69-1.623,1.359-3.266,2.009-4.91q1.978-4.9,3.875-9.881c.629-1.643,1.238-3.307,1.866-4.971.609-1.664,1.217-3.327,1.806-5.011.609-1.664,1.2-3.348,1.765-5.011.588-1.684,1.156-3.368,1.724-5.052s1.116-3.368,1.664-5.072c.548-1.684,1.1-3.388,1.623-5.093.466-1.481.933-2.982,1.4-4.484q2.465-8.126,4.687-16.353,1.339-5.052,2.617-10.144,3.226-13.025,5.843-26.315c.345-1.785.69-3.571,1.015-5.376.325-1.785.649-3.571.953-5.356q.487-2.678.913-5.356c.3-1.806.588-3.591.852-5.4.223-1.38.426-2.78.629-4.159.061-.426.122-.832.183-1.238.142-.954.264-1.887.386-2.82.122-.872.243-1.745.365-2.6.244-1.826.467-3.632.69-5.458.345-2.7.649-5.437.933-8.176h.02c.081-.913.183-1.826.284-2.739.041-.426.081-.872.122-1.319q1.4-13.817,2.069-27.857.091-2.1.183-4.261c.041-.751.061-1.481.081-2.232.1-2.617.183-5.234.223-7.852q.152-6,.142-12.031Q1294.2,367.641,1292.839,348.631Z" transform="translate(66.402 195.685)" fill="#e8cfbe"/>
      <rect id="Rectangle_56" data-name="Rectangle 56" width="7.402" height="216.966" transform="translate(723.813 680.383)" fill="#ff8e28"/>
      <rect id="Rectangle_57" data-name="Rectangle 57" width="7.402" height="318.297" transform="translate(945.424 579.052)" fill="#ff8e28"/>
      <rect id="Rectangle_58" data-name="Rectangle 58" width="7.402" height="251.677" transform="translate(1167.492 645.672)" fill="#ff8e28"/>
      <circle id="Ellipse_167" data-name="Ellipse 167" cx="22.645" cy="22.645" r="22.645" transform="translate(926.938 561.509)" fill="#ff8e28"/>
      <circle id="Ellipse_168" data-name="Ellipse 168" cx="22.645" cy="22.645" r="22.645" transform="translate(1149.006 624.429)" fill="#ff8e28"/>
      <circle id="Ellipse_169" data-name="Ellipse 169" cx="22.645" cy="22.645" r="22.645" transform="translate(700.813 639.479)" fill="#ff8e28"/>
      <path id="Path_440" data-name="Path 440" d="M1191.522,523.911c-.812,1.116-1.623,2.212-2.435,3.307-.994,1.38-2.029,2.739-3.064,4.1H518.583v-7.406Z" transform="translate(66.033 376.027)" fill="#ff8e28"/>
      <path id="Path_441" data-name="Path 441" d="M127.117,727.078h21.447l10.2-82.729-31.655,0Z" transform="translate(269.783 705.957)" fill="#c95636"/>
      <path id="Path_442" data-name="Path 442" d="M484.635,795.959a26.657,26.657,0,0,0-8.724-5.863,27.21,27.21,0,0,0-10.307-2.029l-12.64-9.576-.67.264-22.886,9.313h-6.046v27.8h69.164v-.872A26.7,26.7,0,0,0,484.635,795.959Z" transform="translate(-31.938 637.959)"/>
      <path id="Path_443" data-name="Path 443" d="M176.23,727.078h21.447l10.2-82.729-31.655,0Z" transform="translate(320.314 705.957)" fill="#c95636"/>
      <path id="Path_444" data-name="Path 444" d="M533.766,795.959a26.53,26.53,0,0,0-8.744-5.863,27.054,27.054,0,0,0-10.307-2.029l-12.62-9.576-.69.284-22.886,9.292h-6.046l.02,27.8h69.144v-.872a26.766,26.766,0,0,0-7.872-19.031Z" transform="translate(18.592 637.959)"/>
      <path id="Path_445" data-name="Path 445" d="M569.082,563.522l-168.516,4.4,2.931,82.06s-2.931,21.98,2.931,27.842,8.792,5.861,5.861,16.119,12.554,27.011,10.673,28.892-6.277,12.138-6.277,12.138l14.654,83.525s10.257,145.07,13.188,148,5.861,0,2.931,7.327-5.861,4.4-2.931,7.327a107.92,107.92,0,0,1,7.327,8.792h35.428s2.671-14.654,2.671-16.119,2.931-10.257,2.931-11.723-2.59-4.056-2.59-4.056a48.217,48.217,0,0,1-1.806-9.133c0-2.931-8.792-115.763-8.792-115.763l17.584-146.535,42.5,143.6s0,126.021,2.931,128.951,2.931,1.465,1.465,7.327-7.327,4.4-2.931,8.792,5.861-2.931,4.4,4.4l-1.465,7.327,43.961.629s5.861-12.352,2.931-16.748-2.755-3.2.821-10.39,5.041-8.659,3.576-10.125-1.465-9.26-1.465-9.26l-7.327-140.207s-1.465-148-1.465-152.4a14.613,14.613,0,0,1,1.217-6.592v-5.967L580.8,614.809Z" transform="translate(-55.393 416.782)" fill="#3c7745"/>
      <path id="Path_446" data-name="Path 446" d="M628.677,417.217a16.363,16.363,0,0,1-23.555,8.646l-73.149,61.283L528,457.19l71.546-54.769a16.452,16.452,0,0,1,29.133,14.8Z" transform="translate(75.721 243.49)" fill="#c95636"/>
      <circle id="Ellipse_170" data-name="Ellipse 170" cx="45.426" cy="45.426" r="45.426" transform="translate(336.424 595.147)" fill="#c95636"/>
      <path id="Path_447" data-name="Path 447" d="M482.353,381.526c-4.229-10.08-22.353-16.065-51.032-15.163s-33.7,35.1-33.7,35.1c-15.8,14.723,9.707,60.692,14.131,54.354s11.853-.347,11.853-.347l-7.079-39.82c7.476,2.876,15.516,4.807,22.548,1.456l-11.651-6.23,28.969,3.6-11.947-9.191c.29-.1.579-.195.869-.293a42.457,42.457,0,0,0,15.135,3.436c6.091-.045,12.564-2.9,15.116-8.43a12.455,12.455,0,0,0,1.081-4.821c8.4,2.727,12.808,12.565,12.808,12.565a155.009,155.009,0,0,0-7.1-26.224Z" transform="translate(-63.676 213.838)"/>
      <path id="Path_448" data-name="Path 448" d="M492.388,424.718c-10.144,0-16.677,1.4-32.462,4.058-29.135,4.91-11.686,32.593-11.686,32.593s1.319-.67-2.252,0-15.744,11.2-15.744,11.2L408.474,491.9c-32.807,25.746-25.462,65.918-25.462,65.918l47.841,48.145-20.958,96.595s8.907,14.344,4.3,20.776,40.578,4.585,40.578,4.585c31.184,13.9,141.048,2.151,141.048,2.151-1.522-3.977-16.231-34.8-16.231-34.8,6.391-11.037.3-26.984.3-26.984s-6.35-75.434-10.408-85.862,10.388-66.933,19.883-66.324S660.2,485.431,660.2,485.431s-1.542-2.455,18.706-10.733a99.232,99.232,0,0,0,31.427-19.822l8.318-16.617c-4,1.542-17.489-23.9-17.489-23.9l-5.884,2.243-3.409-.985s-26.6,7.568-32.036,13.086-7.263,3.977-12.173,5.214-5.519,4.687-7.061,4.3-4.281,4.281-6.432,3.672-6.756,1.846-9.82,2.455-24.833,9.82-24.833,9.82c-13.472-6.817-49.992-4.058-49.992-4.058s-11.95-7.04-15.338,0a11.544,11.544,0,0,1-10.408,6.756l-14.567-6.229C508.361,453.727,492.471,421.515,492.388,424.718Z" transform="translate(-74.178 263.312)" fill="#ff8e28"/>
      <path id="Path_449" data-name="Path 449" d="M392.076,774.415,390.052,728.9a147,147,0,0,0-68.567-17.357c32.932,26.924,28.816,78.825,51.143,115.031a88.422,88.422,0,0,0,64.841,40.861l27.558,16.873A148.168,148.168,0,0,0,433.8,764.241a143.124,143.124,0,0,0-26.3-24.44C400.894,757.2,392.076,774.415,392.076,774.415Z" transform="translate(-136.758 569.076)" fill="#ff8e28"/>
      <path id="Path_450" data-name="Path 450" d="M298.947,798.494a2.407,2.407,0,0,0,2.414,2.414H876.122a2.414,2.414,0,0,0,0-4.829H301.361a2.407,2.407,0,0,0-2.414,2.414Z" transform="translate(-159.946 656.055)" fill="#ccc"/>
      <rect id="Rectangle_59" data-name="Rectangle 59" width="12.173" height="4.058" transform="translate(726.35 657.201)" fill="#918b87"/>
      <path id="Path_451" data-name="Path 451" d="M606.553,404.271v4.058h24.59v-4.058Zm49.18,0v4.058H680.3v-4.058Zm49.16,0v4.058h24.59v-4.058Zm49.16,0v4.058h24.59v-4.058Zm49.18,0v4.058H827.8v-4.058Zm49.16,0v4.058h24.59v-4.058Zm49.16,0v4.058h24.59v-4.058Zm49.18,0v4.058H975.3v-4.058Zm49.16,0v4.058h24.59v-4.058Zm49.16,0v4.058h24.59v-4.058Zm49.16,0v4.058h24.59v-4.058Zm49.18,0v4.058h24.57v-4.058Zm49.16,0v4.058h1.826c.061-.426.122-.832.183-1.238.142-.933.264-1.867.406-2.82Z" transform="translate(156.543 252.932)" fill="#918b87"/>
      <rect id="Rectangle_60" data-name="Rectangle 60" width="12.173" height="4.058" transform="translate(937.352 576.046)" fill="#918b87"/>
      <path id="Path_452" data-name="Path 452" d="M710.553,364.271v4.058h24.59v-4.058Zm49.18,0v4.058H784.3v-4.058Zm49.16,0v4.058h24.59v-4.058Zm49.16,0v4.058h24.59v-4.058Zm49.18,0v4.058H931.8v-4.058Zm49.16,0v4.058h24.59v-4.058Zm49.16,0v4.058h24.59v-4.058Zm49.18,0v4.058h24.57v-4.058Z" transform="translate(263.547 211.777)" fill="#918b87"/>
      <rect id="Rectangle_61" data-name="Rectangle 61" width="12.173" height="4.058" transform="translate(1162.559 636.913)" fill="#918b87"/>
      <path id="Path_453" data-name="Path 453" d="M821.553,394.271v4.058h24.59v-4.058Zm49.18,0v4.058H895.3v-4.058Zm49.16,0v4.058h24.59v-4.058Zm49.16,0v4.058h10.692c.081-.913.183-1.826.284-2.739.041-.426.081-.872.122-1.319Z" transform="translate(377.752 242.643)" fill="#918b87"/>
      <path id="Path_454" data-name="Path 454" d="M452.053,674.178V543.5a9.987,9.987,0,0,1,9.976-9.976h98.692A9.987,9.987,0,0,1,570.7,543.5V674.178a9.988,9.988,0,0,1-9.976,9.976H462.029A9.987,9.987,0,0,1,452.053,674.178Z" transform="translate(-2.418 385.917)" fill="#e8cfbe"/>
      <path id="Path_455" data-name="Path 455" d="M455.785,630.737V546.725a9.353,9.353,0,0,1,9.343-9.343h84.817a9.354,9.354,0,0,1,9.344,9.343V663.012a9.354,9.354,0,0,1-9.344,9.343H497.4a41.665,41.665,0,0,1-41.618-41.617Z" transform="translate(1.42 389.887)" fill="#fff"/>
      <path id="Path_456" data-name="Path 456" d="M462.553,558.171a9.14,9.14,0,0,1,9.13-9.13h58.837a9.13,9.13,0,0,1,0,18.26H471.683a9.14,9.14,0,0,1-9.13-9.13Z" transform="translate(8.385 401.883)" fill="#f8eee7"/>
      <path id="Path_457" data-name="Path 457" d="M462.553,572.171a9.14,9.14,0,0,1,9.13-9.13h58.837a9.13,9.13,0,0,1,0,18.26H471.683a9.14,9.14,0,0,1-9.13-9.13Z" transform="translate(8.385 416.287)" fill="#f8eee7"/>
      <path id="Path_458" data-name="Path 458" d="M462.553,586.171a9.14,9.14,0,0,1,9.13-9.13h58.837a9.13,9.13,0,0,1,0,18.26H471.683a9.14,9.14,0,0,1-9.13-9.13Z" transform="translate(8.385 430.691)" fill="#f8eee7"/>
      <path id="Path_459" data-name="Path 459" d="M503.677,619.419A15.182,15.182,0,0,1,488.4,601.85l-84.259-46.135L428.8,542.377l78.083,46.9a15.264,15.264,0,0,1-3.21,30.146Z" transform="translate(-51.711 395.026)" fill="#c95636"/>
      <path id="Path_460" data-name="Path 460" d="M486.215,663.543l-29.879-5.307-10.7-8.895-7.2-3.665-24.8-17.406-.074-.219-39.4-116.477a38.151,38.151,0,0,1,28.231-44.1h0A38.11,38.11,0,0,1,449.4,499.651l12.681,99.826,21.02,21.708,9.2,1.781,2.117,9.9,8.027,12.414Z" transform="translate(-83.244 316.799)" fill="#ff8e28"/>
      <circle id="Ellipse_208" data-name="Ellipse 208" cx="5.5" cy="5.5" r="5.5" transform="translate(388 636)"/>
      <circle id="Ellipse_209" data-name="Ellipse 209" cx="4.5" cy="4.5" r="4.5" transform="translate(408 625)"/>
      <rect id="Rectangle_89" data-name="Rectangle 89" width="1500" height="1500" opacity="0"/>
    </g>
  </g>
</svg>
