<?xml version="1.0" encoding="UTF-8" standalone="no"?> <svg xmlns="http://www.w3.org/2000/svg" viewBox="0 0 64 64"><g id="Online_Payment-4" data-name="Online Payment"><path d="M56,30a3.98,3.98,0,0,0-2.239.687,3.956,3.956,0,0,0-6.336-1.722A3.937,3.937,0,0,0,42,27.556V7a5.006,5.006,0,0,0-5-5H9A5.006,5.006,0,0,0,4,7V57a5.006,5.006,0,0,0,5,5H54a1,1,0,0,0,1-1V53.173l4.592-12.858A6.989,6.989,0,0,0,60,37.961V34A4,4,0,0,0,56,30ZM31.382,4l-.724,1.447A1,1,0,0,1,29.764,6H16.236a1,1,0,0,1-.894-.553L14.618,4ZM6,57V7A3,3,0,0,1,9,4h3.382l1.171,2.342A2.983,2.983,0,0,0,16.236,8H29.764a2.983,2.983,0,0,0,2.683-1.658L33.618,4H37a3,3,0,0,1,3,3V8.556A3.959,3.959,0,0,0,38,8a4,4,0,0,0-4,4V23.56a3.8,3.8,0,0,0-2.943-.438A11.886,11.886,0,0,0,23,20a12,12,0,0,0,0,24,11.878,11.878,0,0,0,6.122-1.686L33,53.173V60H9A3,3,0,0,1,6,57ZM28,26.993V37.961a6.989,6.989,0,0,0,.408,2.354l.028.078a10,10,0,1,1,.757-16.24A3.976,3.976,0,0,0,28,26.993ZM35,60V58h3V56H35V54H53v2H50v2h3v2ZM58,37.961a4.987,4.987,0,0,1-.291,1.681L53.3,52H34.7L30.291,39.642A4.987,4.987,0,0,1,30,37.961V26.993A2,2,0,0,1,34,27V37h2V12a2,2,0,0,1,4,0V37h2V31a2,2,0,0,1,4,0v6h2V32a2,2,0,0,1,4,0v5h2V34a2,2,0,0,1,4,0Z"/><rect x="42" y="56" width="4" height="2"/><path d="M23,27a2,2,0,0,1,2,2h2a4,4,0,0,0-3-3.858V24H22v1.142A3.991,3.991,0,0,0,22.946,33h0A2.058,2.058,0,0,1,25,35a2,2,0,0,1-2,2,2.089,2.089,0,0,1-1.513-.65A1.732,1.732,0,0,1,21,35.058l-2-.116a3.71,3.71,0,0,0,1.031,2.781A4.075,4.075,0,0,0,22,38.86V40h2V38.858A4,4,0,0,0,27,35a4.09,4.09,0,0,0-4-4,2,2,0,0,1,0-4Z"/></g></svg>